<svg xmlns="http://www.w3.org/2000/svg" width="25.5" height="25.501" viewBox="0 0 25.5 25.501">
  <path id="icon-setting" d="M23.416,9.844,20.8,9.723a.615.615,0,0,1-.541-.38l-.539-1.3a.618.618,0,0,1,.115-.652L21.6,5.455a.619.619,0,0,0-.02-.852L19.4,2.426a.618.618,0,0,0-.853-.019L16.612,4.172a.617.617,0,0,1-.653.114l-1.3-.539a.615.615,0,0,1-.379-.542L14.161.589A.617.617,0,0,0,13.545,0h-3.08a.618.618,0,0,0-.617.589L9.727,3.206a.615.615,0,0,1-.379.542l-1.3.539A.616.616,0,0,1,7.4,4.172L5.459,2.407a.618.618,0,0,0-.853.019L2.431,4.6a.617.617,0,0,0-.02.852L4.176,7.393a.616.616,0,0,1,.113.652l-.538,1.3a.616.616,0,0,1-.542.38L.593,9.844A.617.617,0,0,0,0,10.46v3.08a.618.618,0,0,0,.589.616l2.617.121a.616.616,0,0,1,.542.38l.538,1.3a.616.616,0,0,1-.113.652L2.411,18.544a.618.618,0,0,0,.019.853l2.178,2.177a.618.618,0,0,0,.852.02L7.4,19.828a.617.617,0,0,1,.653-.114l1.3.538a.616.616,0,0,1,.379.543l.121,2.617a.618.618,0,0,0,.617.589h3.08a.618.618,0,0,0,.616-.589l.121-2.617a.616.616,0,0,1,.379-.543l1.3-.538a.618.618,0,0,1,.653.114l1.937,1.766a.619.619,0,0,0,.853-.02L21.578,19.4a.62.62,0,0,0,.02-.853l-1.766-1.937a.616.616,0,0,1-.115-.652l.539-1.3a.615.615,0,0,1,.541-.38l2.618-.121A.617.617,0,0,0,24,13.54V10.46A.616.616,0,0,0,23.416,9.844ZM12,15.92A3.92,3.92,0,1,1,15.923,12,3.92,3.92,0,0,1,12,15.92Z" transform="translate(0.746 0.75)" fill="none" stroke="#707070" stroke-width="1.5"/>
</svg>
