<svg xmlns="http://www.w3.org/2000/svg" width="26" height="19" viewBox="0 0 26 19">
  <path id="ifn0833" d="M25.275,263.032a1.53,1.53,0,0,0-.834.224,1.026,1.026,0,0,0-.407.473,2.7,2.7,0,0,0-.182.479,9.435,9.435,0,0,0-.256,1.3c-.118.844-.189,1.985-.248,3.152H14.333a1.117,1.117,0,0,0-.95.465.878.878,0,0,0-.153.515v5.788a.878.878,0,0,0,.153.515,1.118,1.118,0,0,0,.95.465h9.016c.059,1.167.128,2.308.247,3.152a9.415,9.415,0,0,0,.256,1.295,2.708,2.708,0,0,0,.182.48,1.026,1.026,0,0,0,.407.473,1.611,1.611,0,0,0,1.063.212,3.7,3.7,0,0,0,.808-.185,13.181,13.181,0,0,0,1.812-.789,49.986,49.986,0,0,0,4.6-2.73,51.625,51.625,0,0,0,4.36-3.177,14.692,14.692,0,0,0,1.464-1.357,1.832,1.832,0,0,0,.68-1.248,1.759,1.759,0,0,0-.629-1.191,13.316,13.316,0,0,0-1.35-1.276,48.446,48.446,0,0,0-4.076-3.015q-2.137-1.448-4.464-2.723a19.863,19.863,0,0,0-1.851-.893,3.872,3.872,0,0,0-1.585-.4Zm.345,1.482a1.888,1.888,0,0,1,.379.124,18.293,18.293,0,0,1,1.66.8q2.244,1.231,4.312,2.632a47.113,47.113,0,0,1,3.927,2.9,12.212,12.212,0,0,1,1.195,1.125c.266.3.323.556.323.43s-.068.15-.363.475a13.553,13.553,0,0,1-1.309,1.21,50.335,50.335,0,0,1-4.212,3.066,48.826,48.826,0,0,1-4.419,2.625,11.9,11.9,0,0,1-1.49.655s0,0,0,0a8.716,8.716,0,0,1-.222-1.144c-.135-.963-.233-2.272-.29-3.714a.828.828,0,0,0-.906-.664H15.043v-5.01H24.2a.828.828,0,0,0,.906-.664c.057-1.442.155-2.751.29-3.714a8.7,8.7,0,0,1,.221-1.134Z" transform="translate(-13.23 -263.032)" fill="#707070"/>
</svg>
